<svg width="13" height="13" viewBox="0 0 13 13" fill="none" xmlns="http://www.w3.org/2000/svg">
<path d="M6.5 12.5239H6.49125C4.87687 12.4939 0.21875 8.28514 0.21875 4.29889C0.21875 2.38389 1.79687 0.702637 3.59562 0.702637C5.02687 0.702637 5.98937 1.69014 6.49937 2.40889C7.00812 1.69139 7.97062 0.702637 9.4025 0.702637C11.2025 0.702637 12.78 2.38389 12.78 4.29951C12.78 8.28451 8.12125 12.4933 6.50687 12.5226H6.5V12.5239ZM3.59625 1.64076C2.29625 1.64076 1.15687 2.88326 1.15687 4.30014C1.15687 7.88764 5.55312 11.5476 6.50062 11.5864C7.44937 11.5476 11.8444 7.88826 11.8444 4.30014C11.8444 2.88326 10.705 1.64076 9.405 1.64076C7.825 1.64076 6.9425 3.47576 6.935 3.49389C6.79125 3.84514 6.2125 3.84514 6.06812 3.49389C6.05937 3.47514 5.1775 1.64076 3.59687 1.64076H3.59625Z" fill="#657786"/>
</svg>
