<svg width="16" height="12" viewBox="0 0 16 12" fill="none" xmlns="http://www.w3.org/2000/svg">
<path d="M2.43762 6.64257C2.1635 6.41766 1.80629 6.29563 1.43766 6.30096C1.06903 6.30629 0.716246 6.43858 0.450066 6.6713C0.183887 6.90402 0.0240054 7.21996 0.00249123 7.55573C-0.0190229 7.89151 0.0994217 8.22229 0.334067 8.48171L3.57705 11.5869C3.71283 11.7169 3.87598 11.8204 4.05672 11.8914C4.23745 11.9624 4.43205 11.9994 4.62883 12.0001C4.82456 12.0011 5.01853 11.9663 5.19921 11.8976C5.37989 11.8289 5.54359 11.7278 5.68061 11.6003L15.5849 2.27128C15.7191 2.14527 15.8249 1.99637 15.8961 1.83307C15.9673 1.66977 16.0026 1.49527 15.9999 1.31954C15.9971 1.14381 15.9565 0.970288 15.8803 0.808882C15.8041 0.647475 15.6938 0.501346 15.5556 0.378837C15.4175 0.256327 15.2543 0.159836 15.0753 0.0948735C14.8963 0.0299112 14.705 -0.00225079 14.5124 0.000224283C14.3198 0.00269936 14.1296 0.0397628 13.9527 0.109298C13.7758 0.178834 13.6156 0.279481 13.4813 0.405491L4.64344 8.74826L2.43762 6.64257Z" fill="#82C43C"/>
</svg>
