<svg width="16" height="16" viewBox="0 0 16 16" fill="none" xmlns="http://www.w3.org/2000/svg">
<path d="M9.41387 7.99988L15.2069 2.20687C15.5969 1.81687 15.5969 1.18388 15.2069 0.792875C14.8169 0.401875 14.1839 0.402875 13.7929 0.792875L7.99988 6.58588L2.20687 0.792875C1.81687 0.402875 1.18388 0.402875 0.792875 0.792875C0.401875 1.18288 0.402875 1.81587 0.792875 2.20687L6.58588 7.99988L0.792875 13.7929C0.402875 14.1829 0.402875 14.8159 0.792875 15.2069C0.987875 15.4019 1.24287 15.4999 1.49987 15.4999C1.75687 15.4999 2.01187 15.4019 2.20687 15.2069L7.99988 9.41387L13.7929 15.2069C13.9879 15.4019 14.2429 15.4999 14.4999 15.4999C14.7569 15.4999 15.0119 15.4019 15.2069 15.2069C15.5969 14.8169 15.5969 14.1839 15.2069 13.7929L9.41387 7.99988Z" fill="#FF6600"/>
</svg>
