<svg width="24" height="22" viewBox="0 0 24 22" fill="none" xmlns="http://www.w3.org/2000/svg">
<path d="M22.58 6.34986L12.475 0.896855C12.178 0.736855 11.821 0.736855 11.525 0.896855L1.42502 6.34986C0.939018 6.61386 0.758018 7.21986 1.02002 7.70586C1.20002 8.04086 1.54502 8.23086 1.90002 8.23086C2.06002 8.23086 2.22402 8.19286 2.37502 8.11086L3.10902 7.71486L4.69902 18.9649C4.91502 20.1789 6.00902 21.0269 7.35902 21.0269H16.641C17.991 21.0269 19.085 20.1789 19.303 18.9389L20.891 7.71386L21.628 8.11186C22.113 8.37486 22.72 8.19386 22.982 7.70786C23.245 7.22186 23.062 6.61486 22.578 6.35286L22.58 6.34986ZM12 14.4349C10.205 14.4349 8.75002 12.9799 8.75002 11.1849C8.75002 9.38986 10.205 7.93486 12 7.93486C13.795 7.93486 15.25 9.38986 15.25 11.1849C15.25 12.9799 13.795 14.4349 12 14.4349Z" fill="#1C1C1C"/>
</svg>
