<svg width="50" height="50" viewBox="0 0 50 50" fill="none" xmlns="http://www.w3.org/2000/svg">
<path fill-rule="evenodd" clip-rule="evenodd" d="M29.2746 23.8535C29.2746 23.8535 23.6744 32.9339 19.0831 32.9339C11.0522 32.9339 18.5364 15.6353 24.3936 15.6353C28.4806 15.6353 29.2746 23.8535 29.2746 23.8535V23.8535Z" fill="#FF6600"/>
<path fill-rule="evenodd" clip-rule="evenodd" d="M35.9293 35.2728C34.334 36.9704 32.3649 38.2731 30.1784 39.0774C27.9919 39.8818 25.648 40.1658 23.3326 39.9069C21.0172 39.648 18.794 38.8533 16.8392 37.5859C14.8845 36.3184 13.2519 34.613 12.071 32.6049C13.3987 34.4106 15.6504 35.6144 18.8524 35.6144C26.74 35.6144 31.2175 29.4849 31.2175 29.4849C31.2175 29.4849 31.6048 34.3293 35.9196 35.2728H35.9293Z" fill="#FF6600"/>
<path fill-rule="evenodd" clip-rule="evenodd" d="M38.2916 18.0591C39.4721 20.3147 40.0585 22.8339 39.9953 25.379C39.9321 27.924 39.2214 30.411 37.9304 32.6053C36.9092 32.0326 36.1543 31.0814 35.8283 29.957L34.1167 24.8295L38.2916 18.0591V18.0591Z" fill="#FF6600"/>
<path fill-rule="evenodd" clip-rule="evenodd" d="M25.0024 10.013C28.7639 10.0105 32.3885 11.4241 35.1548 13.9725L32.3141 18.5566C31.2858 15.8823 29.1968 13.2047 25.1325 13.2047C16.8088 13.2047 10.6392 22.2916 10.6392 27.9884C10.6374 28.7252 10.7315 29.459 10.9191 30.1715C10.0867 27.9044 9.81404 25.4699 10.1243 23.0748C10.4345 20.6798 11.3185 18.3951 12.7011 16.4148C14.0837 14.4345 15.924 12.8173 18.0656 11.7004C20.2073 10.5836 22.5869 10.0003 25.0024 10V10.013Z" fill="#FF6600"/>
</svg>
