<svg width="18" height="21" viewBox="0 0 18 21" fill="none" xmlns="http://www.w3.org/2000/svg">
<path d="M9.00003 10.8158C10.355 10.8158 11.872 10.6658 12.84 9.55976C13.654 8.62976 13.918 7.19176 13.646 5.16776C13.266 2.34276 11.529 0.655762 9.00003 0.655762C6.47103 0.655762 4.73403 2.34276 4.35403 5.16976C4.08203 7.19176 4.34603 8.62976 5.16003 9.55976C6.12803 10.6668 7.64503 10.8158 9.00003 10.8158ZM5.84003 5.36776C6.00203 4.16776 6.62703 2.15576 9.00003 2.15576C11.373 2.15576 11.998 4.16876 12.16 5.36776C12.367 6.91776 12.217 7.99476 11.71 8.57276C11.255 9.09276 10.444 9.31576 9.00003 9.31576C7.55603 9.31576 6.74503 9.09276 6.29003 8.57276C5.78303 7.99476 5.63303 6.91676 5.84003 5.36776ZM17.28 18.2358C16.403 14.7098 12.998 12.2458 9.00003 12.2458C5.00203 12.2458 1.59703 14.7098 0.720027 18.2358C0.548027 18.9278 0.692027 19.6358 1.11503 20.1758C1.52303 20.6958 2.15503 20.9958 2.84803 20.9958H15.152C15.845 20.9958 16.477 20.6958 16.885 20.1758C17.309 19.6358 17.452 18.9288 17.279 18.2358H17.28ZM15.704 19.2518C15.578 19.4118 15.388 19.4978 15.152 19.4978H2.84803C2.61303 19.4978 2.42203 19.4128 2.29603 19.2518C2.15903 19.0778 2.11603 18.8398 2.17603 18.5978C2.88603 15.7428 5.69303 13.7478 9.00003 13.7478C12.307 13.7478 15.114 15.7418 15.824 18.5978C15.884 18.8398 15.841 19.0778 15.704 19.2518Z" fill="black"/>
</svg>
