<svg width="22" height="22" viewBox="0 0 22 22" fill="none" xmlns="http://www.w3.org/2000/svg">
<path d="M11 7.20996C8.90996 7.20996 7.20996 8.90996 7.20996 11C7.20996 13.09 8.90996 14.79 11 14.79C13.09 14.79 14.79 13.09 14.79 11C14.79 8.90996 13.09 7.20996 11 7.20996ZM11 13.29C9.73796 13.29 8.70996 12.264 8.70996 11C8.70996 9.73596 9.73996 8.70996 11 8.70996C12.26 8.70996 13.29 9.73596 13.29 11C13.29 12.264 12.262 13.29 11 13.29Z" fill="#FF6600"/>
<path d="M11.36 21.375H10.638C9.45499 21.375 8.48399 20.487 8.37599 19.311L8.36199 19.164C8.33699 18.877 8.15499 18.631 7.88999 18.52C7.60399 18.4 7.30799 18.455 7.09199 18.635L6.97599 18.732C6.10799 19.457 4.72299 19.395 3.91599 18.592L3.40599 18.082C2.56999 17.242 2.50999 15.928 3.26599 15.022L3.36399 14.904C3.54999 14.682 3.59399 14.381 3.48599 14.117C3.37599 13.845 3.12799 13.663 2.83999 13.637L2.68999 13.623C1.50999 13.516 0.622986 12.543 0.622986 11.361V10.639C0.622986 9.456 1.51099 8.485 2.68699 8.377L2.84299 8.363C3.12799 8.338 3.37299 8.156 3.48499 7.89C3.59499 7.62 3.54999 7.317 3.36499 7.095L3.27099 6.979C2.51399 6.071 2.57299 4.756 3.40799 3.919L3.91999 3.407C4.72399 2.603 6.10799 2.542 6.97999 3.267L7.09599 3.365C7.31399 3.549 7.62399 3.595 7.88599 3.487C8.15599 3.375 8.33799 3.129 8.36299 2.844L8.37699 2.691C8.48399 1.511 9.45699 0.625 10.639 0.625H11.361C12.544 0.625 13.515 1.513 13.623 2.689L13.637 2.845C13.662 3.13 13.843 3.375 14.109 3.485C14.386 3.602 14.689 3.547 14.903 3.368L15.023 3.266C15.89 2.543 17.277 2.604 18.083 3.406L18.593 3.918C19.429 4.756 19.489 6.071 18.733 6.978L18.633 7.096C18.445 7.316 18.399 7.618 18.51 7.884C18.622 8.154 18.87 8.334 19.156 8.362L19.308 8.376C20.488 8.483 21.375 9.456 21.375 10.638V11.361C21.375 12.544 20.487 13.515 19.311 13.623L19.156 13.637C18.872 13.661 18.626 13.842 18.516 14.107C18.403 14.379 18.449 14.681 18.633 14.902L18.733 15.022C19.489 15.927 19.429 17.242 18.593 18.082L18.083 18.592C17.276 19.396 15.893 19.456 15.023 18.732L14.908 18.636C14.691 18.453 14.378 18.406 14.118 18.514C13.845 18.628 13.663 18.874 13.638 19.16L13.624 19.31C13.517 20.483 12.544 21.37 11.362 21.37L11.36 21.375ZM7.58699 16.955C7.88699 16.955 8.17999 17.015 8.45699 17.13C9.24699 17.458 9.78099 18.184 9.85699 19.026L9.87099 19.173C9.90799 19.573 10.238 19.873 10.641 19.873H11.363C11.763 19.873 12.093 19.573 12.131 19.173L12.145 19.025C12.221 18.183 12.755 17.458 13.537 17.133C14.33 16.803 15.233 16.951 15.87 17.483L15.983 17.577C16.161 17.725 16.349 17.757 16.476 17.757C16.682 17.757 16.876 17.677 17.022 17.53L17.532 17.02C17.816 16.736 17.837 16.29 17.58 15.982L17.48 15.862C16.938 15.212 16.803 14.322 17.128 13.539C17.454 12.749 18.18 12.219 19.022 12.142L19.177 12.128C19.574 12.091 19.877 11.761 19.877 11.358V10.636C19.877 10.236 19.574 9.906 19.175 9.868L19.023 9.854C18.177 9.776 17.453 9.244 17.128 8.461C16.802 7.673 16.938 6.783 17.481 6.134L17.581 6.016C17.838 5.706 17.817 5.26 17.533 4.976L17.023 4.466C16.877 4.319 16.683 4.239 16.477 4.239C16.35 4.239 16.162 4.271 15.985 4.419L15.865 4.519C15.231 5.047 14.315 5.189 13.543 4.873C12.755 4.546 12.223 3.821 12.146 2.977L12.132 2.822C12.097 2.425 11.767 2.122 11.365 2.122H10.642C10.242 2.122 9.91199 2.425 9.87399 2.824L9.85999 2.976C9.78399 3.819 9.25199 4.544 8.46999 4.869C7.68299 5.195 6.77699 5.052 6.13999 4.519L6.02199 4.423C5.84199 4.273 5.65399 4.243 5.52699 4.243C5.32099 4.243 5.12699 4.323 4.98099 4.469L4.46899 4.979C4.18699 5.263 4.16599 5.709 4.42299 6.017L4.52299 6.135C5.06299 6.788 5.19999 7.679 4.87499 8.46C4.54799 9.248 3.82299 9.78 2.97999 9.857L2.82399 9.871C2.42699 9.908 2.12399 10.238 2.12399 10.641V11.363C2.12399 11.763 2.42699 12.093 2.82599 12.131L2.97599 12.145C3.82399 12.223 4.54899 12.757 4.87299 13.541C5.19799 14.327 5.06299 15.216 4.51999 15.866L4.42399 15.981C4.16399 16.291 4.18599 16.737 4.46999 17.021L4.97999 17.531C5.12599 17.678 5.31999 17.758 5.52599 17.758C5.65299 17.758 5.84099 17.728 6.01799 17.578L6.13399 17.482C6.53999 17.146 7.05699 16.958 7.58699 16.958V16.955Z" fill="#FF6600"/>
</svg>
